<svg xmlns="http://www.w3.org/2000/svg" width="80" height="80" viewBox="0 0 80 80">
  <g id="组_1186" data-name="组 1186" transform="translate(4966 -1266)">
    <rect id="矩形_6249" data-name="矩形 6249" width="80" height="80" transform="translate(-4966 1266)" fill="none"/>
    <path id="路径_382" data-name="路径 382" d="M0,0H74V74H0Z" transform="translate(-4963 1269)" fill="none"/>
    <g id="组_1184" data-name="组 1184" transform="translate(-1.241 2.759)">
      <rect id="矩形_1828" data-name="矩形 1828" width="66" height="66" rx="20" transform="translate(-4957.758 1270.241)" fill="#e24329"/>
      <g id="组_1056" data-name="组 1056" transform="translate(-4949.689 1278.31)">
        <path id="路径_384" data-name="路径 384" d="M0,0H49.862V49.862H0Z" fill="none"/>
        <path id="路径_385" data-name="路径 385" d="M39.241,6.155H30.547a6.193,6.193,0,0,0-11.7,0H10.155A4.154,4.154,0,0,0,6,10.31V39.4a4.154,4.154,0,0,0,4.155,4.155H39.241A4.154,4.154,0,0,0,43.4,39.4V10.31A4.154,4.154,0,0,0,39.241,6.155Zm-14.543,0a2.078,2.078,0,1,1-2.078,2.078A2.077,2.077,0,0,1,24.7,6.155Zm4.155,29.086H14.31V31.086H28.854Zm6.233-8.31H14.31V22.776H35.086Zm0-8.31H14.31V14.466H35.086Z" transform="translate(0.233 0.078)" fill="#fff"/>
      </g>
    </g>
  </g>
</svg>
