<svg xmlns="http://www.w3.org/2000/svg" width="80" height="80" viewBox="0 0 80 80">
  <g id="组_1187" data-name="组 1187" transform="translate(4875 -1266)">
    <rect id="矩形_6250" data-name="矩形 6250" width="80" height="80" transform="translate(-4875 1266)" fill="none"/>
    <g id="组_1185" data-name="组 1185" transform="translate(-4 4)">
      <rect id="矩形_1829" data-name="矩形 1829" width="66" height="66" rx="20" transform="translate(-4864 1269)" fill="#4ba6f5"/>
      <g id="组_1059" data-name="组 1059" transform="translate(-4853.548 1283.2)">
        <path id="路径_386" data-name="路径 386" d="M69.684,97.016v14.456a3.411,3.411,0,0,1-3.411,3.411h-29.2a3.4,3.4,0,0,1-2.735-1.372c-.046-.061-.09-.124-.131-.189a3.391,3.391,0,0,1-.546-1.85v-29.2a3.41,3.41,0,0,1,3.412-3.411h29.2a3.406,3.406,0,0,1,2.95,1.7l-4.695,4.7L54.139,95.646l-7.568-7.568a4.059,4.059,0,0,0-5.341,0l-3.116,3.115A3.5,3.5,0,0,0,37.2,93a4,4,0,0,0,.916,3.539l13.354,13.354a4.063,4.063,0,0,0,5.341,0l3.116-3.116Z" transform="translate(-33.66 -77.283)" fill="#cce9ff"/>
        <path id="路径_387" data-name="路径 387" d="M100.78,77.229,90.508,87.5l-9.759,9.759-3.116,3.116a4.063,4.063,0,0,1-5.341,0L58.937,87.023a4,4,0,0,1-.916-3.539,3.5,3.5,0,0,1,.916-1.8l3.116-3.115a4.059,4.059,0,0,1,5.341,0l7.568,7.568,10.39-10.392,4.695-4.7,2.275-2.273a4.059,4.059,0,0,1,5.341,0l3.116,3.115a3.347,3.347,0,0,1,.795,1.338A4.074,4.074,0,0,1,100.78,77.229Z" transform="translate(-54.484 -67.77)" fill="#fff"/>
      </g>
    </g>
  </g>
</svg>
