<?xml version="1.0"?>
<svg width="80" height="80" xmlns="http://www.w3.org/2000/svg" xmlns:svg="http://www.w3.org/2000/svg">
 <g class="layer">
  <title>Layer 1</title>
  <g data-name="组 1181" id="组_1181">
   <rect data-name="矩形 6246" fill="none" height="80" id="矩形_6246" transform="translate(-8105 1312)" width="80" x="8105" y="-1312"/>
   <g data-name="组 1178" id="组_1178">
    <circle cx="39.55" cy="39.5" data-name="椭圆 291" fill="#ffffff" id="椭圆_291" r="32.5" transform="matrix(1 0 0 1 0 0)"/>
    <g data-name="Icon ionic-ios-timer" id="Icon_ionic-ios-timer">
     <path d="m40.06,73.59a33.06,33.06 0 0 1 -22.95,-56.86a2.65,2.65 0 1 1 3.69,3.82a27.75,27.75 0 1 0 21.9,-7.64l0,10.35a2.66,2.66 0 1 1 -5.32,0l0,-13.13a2.66,2.66 0 0 1 2.66,-2.66a33.06,33.06 0 0 1 0.02,66.12z" data-name="路径 379" fill="#ff7f00" id="路径_379" stroke="#ee7d1b" transform="translate(0 0)"/>
     <path d="m16.94,15.09l16.45,11.82a4.98,4.98 0 1 1 -5.79,8.1a4.81,4.81 0 0 1 -1.16,-1.16l-11.82,-16.44a1.66,1.66 0 0 1 2.32,-2.32z" data-name="路径 380" fill="#ff7f00" id="路径_380" stroke="#ee7d1b" transform="translate(9.883 9.882)"/>
    </g>
   </g>
  </g>
 </g>
</svg>