<svg xmlns="http://www.w3.org/2000/svg" xmlns:xlink="http://www.w3.org/1999/xlink" width="120.953" height="110" viewBox="0 0 120.953 110">
  <defs>
    <filter id="联合_47" x="3" y="7" width="117.953" height="100.001" filterUnits="userSpaceOnUse">
      <feOffset dx="2" dy="2" input="SourceAlpha"/>
      <feGaussianBlur stdDeviation="3" result="blur"/>
      <feFlood flood-opacity="0.161"/>
      <feComposite operator="in" in2="blur"/>
      <feComposite in="SourceGraphic"/>
    </filter>
  </defs>
  <g id="组_1175" data-name="组 1175" transform="translate(-319 -40)">
    <rect id="矩形_6242" data-name="矩形 6242" width="120" height="110" transform="translate(319 40)" fill="none"/>
    <g id="组_1163" data-name="组 1163" transform="translate(-8.5 6.5)">
      <g id="组_1033" data-name="组 1033" transform="translate(-1009.5 -328.5)">
        <g transform="matrix(1, 0, 0, 1, 1337, 362)" filter="url(#联合_47)">
          <path id="联合_47-2" data-name="联合 47" d="M2674-1930.5a41,41,0,0,1,41-41,41.017,41.017,0,0,1,39.208,28.976l18.233,10.419a3,3,0,0,1,0,5.209l-18.953,10.831c-.042.024-.085.047-.128.069a41.016,41.016,0,0,1-38.36,26.5A41,41,0,0,1,2674-1930.5Z" transform="translate(-2664 1985.5)" fill="#cfcfcf"/>
        </g>
      </g>
      <g id="Layer_2" data-name="Layer 2" transform="translate(355.5 64.5)">
        <g id="invisible_box" data-name="invisible box">
          <rect id="矩形_1806" data-name="矩形 1806" width="48" height="48" fill="none"/>
        </g>
        <g id="Layer_4" data-name="Layer 4">
          <path id="路径_365" data-name="路径 365" d="M36.8,11.1A2.8,2.8,0,0,0,34.5,10H32V8a2.9,2.9,0,0,0-3-3H5A2.9,2.9,0,0,0,2,8V35a3,3,0,0,0,3,3H7.3a7,7,0,0,0,13.4,0h6.6a7,7,0,0,0,13.4,0H43a3,3,0,0,0,3-3V21.2ZM14,39a3,3,0,1,1,3-3,3,3,0,0,1-3,3Zm8-17H19v3a2,2,0,0,1-4,0V22H12a2,2,0,0,1,0-4h3V15a2,2,0,0,1,4,0v3h3a2,2,0,0,1,0,4ZM34,39a3,3,0,1,1,3-3A3,3,0,0,1,34,39ZM32,21V14h2l6.4,7Z" fill="#fff"/>
        </g>
      </g>
    </g>
  </g>
</svg>
