<svg xmlns="http://www.w3.org/2000/svg" xmlns:xlink="http://www.w3.org/1999/xlink" width="120.953" height="110" viewBox="0 0 120.953 110">
  <defs>
    <filter id="联合_45" x="4" y="7" width="116.953" height="100" filterUnits="userSpaceOnUse">
      <feOffset dx="2" dy="2" input="SourceAlpha"/>
      <feGaussianBlur stdDeviation="3" result="blur"/>
      <feFlood flood-opacity="0.161"/>
      <feComposite operator="in" in2="blur"/>
      <feComposite in="SourceGraphic"/>
    </filter>
  </defs>
  <g id="组_1167" data-name="组 1167" transform="translate(-34 -40)">
    <rect id="矩形_6240" data-name="矩形 6240" width="120" height="110" transform="translate(34 40)" fill="none"/>
    <g id="组_1161" data-name="组 1161" transform="translate(-43.5 7.5)">
      <g id="组_1036" data-name="组 1036" transform="translate(-925.5 -329.5)">
        <g transform="matrix(1, 0, 0, 1, 1003, 362)" filter="url(#联合_45)">
          <path id="联合_45-2" data-name="联合 45" d="M2590-1929.5a41,41,0,0,1,41-41,41.017,41.017,0,0,1,39.413,29.664l17.029,9.731a3,3,0,0,1,0,5.209l-17.816,10.181A41.015,41.015,0,0,1,2631-1888.5,41,41,0,0,1,2590-1929.5Z" transform="translate(-2579 1984.5)" fill="#d1e0ba"/>
        </g>
      </g>
      <g id="Layer_2" data-name="Layer 2" transform="translate(106.74 61.74)">
        <g id="Icons">
          <g id="组_1025" data-name="组 1025">
            <rect id="矩形_1804" data-name="矩形 1804" width="54" height="54" transform="translate(-0.24 -0.24)" fill="none"/>
            <path id="路径_362" data-name="路径 362" d="M49.161,24.969l-5.686-5.686a10.815,10.815,0,0,0,1.9-6.132A11.15,11.15,0,0,0,34.22,2a10.927,10.927,0,0,0-6.69,2.23H5.23A2.23,2.23,0,0,0,3,6.46V48.83a2.23,2.23,0,0,0,2.23,2.23H40.91a2.23,2.23,0,0,0,2.23-2.23V25.192l2.9,2.9a2.208,2.208,0,1,0,3.122-3.122ZM33.1,6.572V8.69h-.557a2.23,2.23,0,0,0-2.23,2.23v1.115a2.23,2.23,0,0,0,2.23,2.23h3.345V15.38h-4.46a1.115,1.115,0,0,0,0,2.23H33.1v2.118a6.69,6.69,0,0,1,0-13.157ZM14.15,16.495h9.477a3.345,3.345,0,0,0,.446,1.115.446.446,0,0,0,.111.334,2.787,2.787,0,0,0,.446.78c0,.111.111.223.111.334l.557.669c0,.111.111.223.223.334l.669.781a.111.111,0,0,0,.111.111H14.15a2.23,2.23,0,0,1,0-4.46Zm8.92,22.3H14.15a2.23,2.23,0,1,1,0-4.46h8.92a2.23,2.23,0,1,1,0,4.46Zm8.92-8.92H14.15a2.23,2.23,0,0,1,0-4.46H31.99a2.23,2.23,0,0,1,0,4.46Zm3.345-10.146V17.61h.557a2.23,2.23,0,0,0,2.23-2.23V14.265a2.23,2.23,0,0,0-2.23-2.23H32.547V10.92h4.46a1.115,1.115,0,1,0,0-2.23H35.335V6.572a6.69,6.69,0,0,1,0,13.157Z" transform="translate(0.345 0.23)" fill="#649719"/>
          </g>
        </g>
      </g>
    </g>
  </g>
</svg>
