<svg xmlns="http://www.w3.org/2000/svg" xmlns:xlink="http://www.w3.org/1999/xlink" width="120" height="110" viewBox="0 0 120 110">
  <defs>
    <filter id="联合_48" x="12" y="7" width="100" height="100" filterUnits="userSpaceOnUse">
      <feOffset dx="2" dy="2" input="SourceAlpha"/>
      <feGaussianBlur stdDeviation="3" result="blur"/>
      <feFlood flood-opacity="0.161"/>
      <feComposite operator="in" in2="blur"/>
      <feComposite in="SourceGraphic"/>
    </filter>
  </defs>
  <g id="组_1172" data-name="组 1172" transform="translate(-452 -258)">
    <rect id="矩形_6245" data-name="矩形 6245" width="120" height="110" transform="translate(452 258)" fill="none"/>
    <g id="组_1166" data-name="组 1166" transform="translate(0.5 -3.5)">
      <g id="组_1034" data-name="组 1034" transform="translate(-1043.5 -100.5)">
        <g transform="matrix(1, 0, 0, 1, 1495, 362)" filter="url(#联合_48)">
          <path id="联合_48-2" data-name="联合 48" d="M2749-1971.5a41,41,0,0,1,41,41,41,41,0,0,1-41,41,41,41,0,0,1-41-41A41,41,0,0,1,2749-1971.5Z" transform="translate(-2689 1985.5)" fill="#e24329"/>
        </g>
      </g>
      <g id="组_1160" data-name="组 1160" transform="translate(-1041.5 -425.5)">
        <rect id="矩形_6237" data-name="矩形 6237" width="48" height="48" transform="translate(1529 718.5)" fill="none"/>
        <g id="组_1159" data-name="组 1159" transform="translate(2797.89 -2630.42)">
          <g id="box" transform="translate(-1268.032 3365.143)">
            <g id="组_1158" data-name="组 1158" transform="translate(0 0)">
              <rect id="矩形_6236" data-name="矩形 6236" width="46.284" height="28.927" rx="4" fill="#fff"/>
            </g>
          </g>
          <g id="box-2" data-name="box" transform="translate(-1268.032 3350.771)">
            <g id="组_1158-2" data-name="组 1158" transform="translate(0 0)">
              <path id="路径_639" data-name="路径 639" d="M5.6,15H40.686c1.237,0,3.064,1,3.359,2.239l2.239,7.655a2.239,2.239,0,0,1-2.239,2.239H2.239A2.239,2.239,0,0,1,0,24.894l2.239-7.655A3.9,3.9,0,0,1,5.6,15Z" transform="translate(0 -15)" fill="#fff"/>
            </g>
          </g>
          <path id="路径_638" data-name="路径 638" d="M1.749,27.308H25.212a1.687,1.687,0,0,0,1.49-2.482L15,2.893A1.685,1.685,0,0,0,13.509,2h0a1.685,1.685,0,0,0-1.486.891L.263,24.825a1.686,1.686,0,0,0,1.486,2.484Zm11.758-6.749a1.688,1.688,0,1,1-1.688,1.687,1.688,1.688,0,0,1,1.688-1.687ZM11.82,17.212V10.463a1.687,1.687,0,1,1,3.374,0v6.749a1.687,1.687,0,1,1-3.374,0Z" transform="translate(-1258.372 3364.658)" fill="#e24329"/>
        </g>
      </g>
    </g>
  </g>
</svg>
