<?xml version="1.0"?>
<svg width="36" height="36" xmlns="http://www.w3.org/2000/svg" xmlns:svg="http://www.w3.org/2000/svg">
 <g class="layer">
  <title>Layer 1</title>
  <g data-name="Layer 2" id="Layer_2">
   <g data-name="invisible box" id="invisible_box">
    <rect data-name="矩形 1800" fill="none" height="36" id="矩形_1800" transform="translate(0.207 0.207)" width="36" x="-0.21" y="-0.21"/>
   </g>
   <g data-name="icons Q2" id="icons_Q2">
    <path d="m36.18,27.56c-1.59,-1.97 -7.51,-8.42 -16.15,-8.42s-14.57,6.45 -16.16,8.42a2.28,2.28 0 0 0 0,2.88c1.59,1.98 7.51,8.42 16.16,8.42s14.56,-6.44 16.15,-8.42a2.28,2.28 0 0 0 0,-2.88zm-16.15,5.99a4.55,4.55 0 1 1 4.55,-4.55a4.55,4.55 0 0 1 -4.55,4.55z" data-name="路径 361" fill="#649719" id="路径_361" transform="translate(-2.022 -11)"/>
   </g>
  </g>
 </g>
</svg>